<svg width="64" height="64" viewBox="0 0 64 64" fill="none" xmlns="http://www.w3.org/2000/svg">
<rect width="64" height="64" rx="12" fill="#24273A"/>
<path d="M36.958 16.1788C32.7057 17.0884 29.7758 21.3526 28.8423 23.3711L16.2411 25.3767L13 29.1453H23.0862C24.0507 29.1453 24.6894 28.5662 24.8882 28.2766H25.2901L21.1675 34.0508C20.1865 35.456 18.1961 39.01 18.082 41.984C17.9394 45.7014 20.7656 46.9789 21.8805 47.5027C22.9954 48.0264 32.2779 48.0009 32.8353 47.9242C33.3928 47.8476 33.1465 47.6688 32.1093 47.5027C28.8319 46.7962 28.1209 45.7285 27.8165 45.2714L27.8052 45.2543C27.507 44.8072 26.4982 44.0047 27.131 40.9109C27.8052 37.615 33.1076 29.9118 33.2891 29.6946C33.4343 29.5209 32.5631 29.256 32.1093 29.1453C37.0185 29.1708 46.8782 29.2066 47.0441 29.1453C47.2101 29.084 49.0839 26.9395 50 25.8749L37.684 23.5244C38.3322 22.5577 39.683 20.5299 39.9008 20.1518C40.1731 19.6791 42.2733 15.0419 36.958 16.1788Z" fill="#ED8796"/>
<path d="M33.9114 41.754C32.7809 43.2972 30.5277 44.8115 29.5943 45.3821C29.5943 46.2507 29.8435 46.4761 32.1093 46.7362C34.78 47.0428 36.6771 46.3829 37.6321 46.1102C39.0193 45.7142 40.3544 44.6922 41.6121 43.3381C42.3122 42.5844 44.4427 39.4247 45.5533 37.7172H36.7116C36.2492 38.4198 35.0418 40.2108 33.9114 41.754Z" fill="#ED8796"/>
</svg>
