<?xml version="1.0" encoding="UTF-8"?>
<svg version="1.1" xmlns="http://www.w3.org/2000/svg" width="1200" height="800">
<path d="M0 0 C4.46926715 4.74013183 6.7850344 9.78854646 7.3125 16.25 C6.18508219 34.00683055 -5.37740986 47.95600315 -15.31054688 61.88769531 C-19.75367691 68.16835031 -24.01720124 74.56681417 -27.9375 81.1875 C-27.14073853 81.34641724 -27.14073853 81.34641724 -26.32788086 81.50854492 C-21.64989446 82.44278893 -16.97286748 83.3816284 -12.29689026 84.32588196 C2.63544239 87.34014119 17.56875996 90.32349013 32.55541992 93.05737305 C45.32266518 95.39748887 58.06643621 97.86011433 70.8125 100.3125 C71.94750946 100.53064362 73.08251892 100.74878723 74.25192261 100.97354126 C81.52343561 102.3714261 88.79351976 103.77650823 96.0625 105.1875 C96.89354248 105.34810913 97.72458496 105.50871826 98.58081055 105.67419434 C100.72637258 106.08957713 102.87114227 106.50877386 105.015625 106.9296875 C106.15676758 107.15253418 107.29791016 107.37538086 108.47363281 107.60498047 C111.0625 108.1875 111.0625 108.1875 113.0625 109.1875 C111.78518518 112.84549877 110.37361965 115.26446225 107.68359375 118.04296875 C107.01368408 118.74325195 106.34377441 119.44353516 105.65356445 120.16503906 C104.94288818 120.89432617 104.23221191 121.62361328 103.5 122.375 C102.04343819 123.89373313 100.58770412 125.41326056 99.1328125 126.93359375 C98.0794873 128.02969971 98.0794873 128.02969971 97.00488281 129.14794922 C93.90887616 132.39883403 90.92855432 135.74447311 87.95703125 139.109375 C87.33183594 139.79515625 86.70664062 140.4809375 86.0625 141.1875 C85.34785237 142.04217708 84.63320475 142.89685415 83.89690113 143.77743053 C80.30399614 146.83244999 78.48809878 146.81669226 73.81755066 146.82673645 C73.09865687 146.83509213 72.37976308 146.8434478 71.63908464 146.85205668 C69.23570011 146.87396428 66.83384696 146.8603878 64.43041992 146.84692383 C62.70555462 146.85537759 60.98069886 146.86602195 59.25585938 146.87869263 C54.57641969 146.90685888 49.89743809 146.90436385 45.21793914 146.89639878 C40.32648299 146.89327569 35.43517324 146.9183023 30.54377747 146.94035339 C21.28264235 146.9778214 12.02165408 146.98994302 2.76045066 146.9929778 C-7.78367095 146.99766563 -18.32764518 147.03058014 -28.87170184 147.06587565 C-50.56028885 147.13784382 -72.24880487 147.17333109 -93.9375 147.1875 C-88.6575 148.5075 -83.3775 149.8275 -77.9375 151.1875 C-79.44105746 154.94639366 -80.54984192 157.31969944 -82.80859375 160.48828125 C-83.37731201 161.29233398 -83.94603027 162.09638672 -84.53198242 162.92480469 C-85.14017822 163.77461914 -85.74837402 164.62443359 -86.375 165.5 C-87.65159973 167.30299041 -88.92763495 169.10638065 -90.203125 170.91015625 C-90.83669922 171.8036377 -91.47027344 172.69711914 -92.12304688 173.61767578 C-95.11066189 177.8490584 -98.03872502 182.12052109 -100.96484375 186.39453125 C-103.17822196 189.62697215 -105.39839583 192.8538887 -107.640625 196.06640625 C-110.44028209 200.0840244 -113.19950172 204.12764443 -115.9375 208.1875 C-116.41832031 208.89680664 -116.89914062 209.60611328 -117.39453125 210.33691406 C-137.33210133 239.99339199 -154.35293344 276.4413855 -147.75 313 C-144.2174874 328.6416372 -135.94908261 341.98827366 -122.41015625 350.83984375 C-108.81385553 358.68616707 -94.42554581 362.06859175 -78.9375 363.1875 C-78.9375 363.8475 -78.9375 364.5075 -78.9375 365.1875 C-82.32156433 366.87953217 -86.1677868 366.34391666 -89.89086914 366.34863281 C-90.81970413 366.35359772 -91.74853912 366.35856262 -92.70552063 366.36367798 C-95.79457331 366.37833929 -98.8835744 366.38511323 -101.97265625 366.390625 C-104.12625632 366.39637948 -106.27985637 366.40213718 -108.43345642 366.40789795 C-112.96385944 366.41842347 -117.49424467 366.42425391 -122.0246582 366.42773438 C-127.78722776 366.43317904 -133.54955621 366.45711315 -139.31205082 366.48570633 C-143.77091616 366.50449001 -148.22972571 366.50954691 -152.68862724 366.51107025 C-154.80977107 366.51406922 -156.93091458 366.52200272 -159.05201912 366.53525543 C-185.3190272 366.68746198 -211.70638794 363.04766158 -232.1796875 344.9765625 C-244.44128592 332.57602245 -250.77260423 316.46667181 -250.96044922 299.06103516 C-250.47664762 258.90550214 -230.17638955 226.08235244 -207.9375 194.1875 C-206.62876404 192.3060885 -205.32017525 190.42457462 -204.01171875 188.54296875 C-201.97252636 185.61159899 -199.93273156 182.68065738 -197.89111328 179.75097656 C-192.55146935 172.08544391 -187.26346316 164.3859439 -182 156.66796875 C-179.90699534 153.60024109 -177.80200672 150.5412274 -175.6875 147.48828125 C-175.1716333 146.74247803 -174.6557666 145.9966748 -174.12426758 145.22827148 C-173.14683203 143.81631402 -172.16758824 142.4056061 -171.1862793 140.99633789 C-168.94737852 138.31575463 -168.94737852 138.31575463 -167.9375 135.1875 C-172.49777453 135.1875 -173.52349368 136.29445712 -176.94430637 139.03470898 C-189.10301442 148.40475616 -201.41497239 147.69598877 -216.19140625 147.48046875 C-218.79028604 147.48239417 -221.38916631 147.4891754 -223.98802185 147.50056458 C-230.08334364 147.51572603 -236.17657724 147.4826453 -242.27158731 147.42509204 C-249.22233749 147.36223213 -256.17266266 147.36266355 -263.12364304 147.36781728 C-277.39549061 147.37701188 -291.66619216 147.30865553 -305.9375 147.1875 C-304.67057348 143.91640067 -303.44164827 141.24603749 -301.28515625 138.47265625 C-300.76123291 137.79315918 -300.23730957 137.11366211 -299.69750977 136.41357422 C-299.13733154 135.69959473 -298.57715332 134.98561523 -298 134.25 C-297.42241943 133.50508301 -296.84483887 132.76016602 -296.24975586 131.99267578 C-294.48471041 129.71977147 -292.71153982 127.45338737 -290.9375 125.1875 C-289.90590889 123.86094227 -288.87463957 122.53413422 -287.84375 121.20703125 C-286.00799415 118.84748215 -284.15796533 116.50055665 -282.29296875 114.1640625 C-280.90802107 112.41392961 -279.54543283 110.64491509 -278.23828125 108.8359375 C-275.74732679 105.51921458 -273.86096176 103.89530726 -269.85197449 103.11566162 C-269.051388 102.95706413 -268.25080151 102.79846664 -267.42595482 102.63506317 C-263.43245419 101.9168087 -259.4379005 101.22615084 -255.4309082 100.58691406 C-254.0720903 100.36684692 -254.0720903 100.36684692 -252.68582153 100.14233398 C-249.70371495 99.66003798 -246.72101266 99.18154028 -243.73828125 98.703125 C-241.62253927 98.36184766 -239.50683255 98.0203516 -237.39115906 97.6786499 C-231.80843911 96.77767061 -226.22519323 95.87999093 -220.6418457 94.98291016 C-216.19839172 94.26840096 -211.75532133 93.55152542 -207.31228828 92.83440399 C-204.03551142 92.30569023 -200.7585948 91.77784938 -197.48165894 91.25012207 C-193.16940889 90.55551666 -188.85773785 89.85745412 -184.54641724 89.15710449 C-174.48321354 87.52715197 -164.41790296 85.94996456 -154.32568359 84.50976562 C-151.67165588 84.12267834 -149.01787929 83.733917 -146.36418724 83.34453583 C-143.91579312 82.99303539 -141.46491378 82.66638743 -139.01301575 82.34039307 C-137.55561074 82.12760992 -136.09837877 81.91363674 -134.64135742 81.69824219 C-133.3864299 81.52556824 -132.13150238 81.35289429 -130.83854675 81.17498779 C-127.73556045 80.48406021 -127.73556045 80.48406021 -126.58390808 77.70349121 C-126.37059341 76.87321411 -126.15727875 76.04293701 -125.9375 75.1875 C-124.89111328 73.42089844 -124.89111328 73.42089844 -123.7578125 71.796875 C-123.11561768 70.8689917 -123.11561768 70.8689917 -122.46044922 69.92236328 C-121.99912598 69.2673584 -121.53780273 68.61235352 -121.0625 67.9375 C-120.5792627 67.2451123 -120.09602539 66.55272461 -119.59814453 65.83935547 C-118.5720668 64.37094034 -117.54385627 62.90401354 -116.51367188 61.43847656 C-114.94943245 59.20454108 -113.40283015 56.95926993 -111.859375 54.7109375 C-104.94533408 44.69513649 -97.68010979 35.70004111 -88.9375 27.1875 C-88.51082031 26.70410156 -88.08414063 26.22070312 -87.64453125 25.72265625 C-68.65215424 4.97262995 -26.50272632 -16.35274603 0 0 Z M-166.5625 130.6875 C-167.01625 131.1825 -167.47 131.6775 -167.9375 132.1875 C-166.9475 132.5175 -165.9575 132.8475 -164.9375 133.1875 C-164.2775 131.8675 -163.6175 130.5475 -162.9375 129.1875 C-165.06114481 128.96140663 -165.06114481 128.96140663 -166.5625 130.6875 Z " fill="#FAFAFA" transform="translate(695.9375,219.8125)"/>
<path d="M0 0 C0.97608719 -0.00102219 1.95217438 -0.00204437 2.95783997 -0.00309753 C6.17833078 0.00177241 9.39597252 0.05618771 12.6159668 0.11108398 C14.85082958 0.12414223 17.08571242 0.13410533 19.32060242 0.14109802 C25.19836911 0.16780524 31.0749219 0.23655277 36.95220947 0.31402588 C42.95128965 0.38567635 48.9505663 0.41761352 54.94995117 0.45288086 C66.71806219 0.52791935 78.48527287 0.64736736 90.25268555 0.79467773 C89.54191977 3.90279262 88.65442221 5.94692869 86.78393555 8.54467773 C86.29538086 9.23561523 85.80682617 9.92655273 85.3034668 10.63842773 C84.26961263 12.07592773 83.23575846 13.51342773 82.2019043 14.95092773 C81.71334961 15.64186523 81.22479492 16.33280273 80.72143555 17.04467773 C80.27219727 17.66858398 79.82295898 18.29249023 79.36010742 18.93530273 C78.19859159 20.88550216 77.68682197 22.57739339 77.25268555 24.79467773 C76.26268555 24.79467773 75.27268555 24.79467773 74.25268555 24.79467773 C74.58268555 25.78467773 74.91268555 26.77467773 75.25268555 27.79467773 C74.51018555 28.33092773 73.76768555 28.86717773 73.00268555 29.41967773 C70.58541965 31.50731646 69.13770076 33.35585174 67.42602539 36.00219727 C65.11014072 39.54011347 62.63205384 42.96810439 60.19018555 46.41967773 C59.66102539 47.16991211 59.13186523 47.92014648 58.58666992 48.69311523 C55.65565308 52.84140507 55.65565308 52.84140507 54.25268555 54.79467773 C53.74165283 55.53508301 53.23062012 56.27548828 52.70410156 57.03833008 C51.98565063 57.90772217 51.98565063 57.90772217 51.25268555 58.79467773 C50.59268555 58.79467773 49.93268555 58.79467773 49.25268555 58.79467773 C48.98584961 59.3837793 48.71901367 59.97288086 48.4440918 60.57983398 C44.59348414 67.73817674 37.07551041 72.63022356 30.75268555 77.48217773 C30.04104248 78.02865967 29.32939941 78.5751416 28.59619141 79.13818359 C24.52403088 82.21558217 20.39387065 85.0355592 15.99682617 87.62988281 C14.19897137 88.74325291 14.19897137 88.74325291 12.75292969 90.33276367 C11.09586213 91.94749444 9.7326708 92.62575681 7.5925293 93.47827148 C6.88628418 93.76412109 6.18003906 94.0499707 5.45239258 94.34448242 C4.70586426 94.63742187 3.95933594 94.93036133 3.19018555 95.23217773 C2.42303223 95.53929687 1.65587891 95.84641602 0.86547852 96.1628418 C-0.65582901 96.77136481 -2.17826488 97.37707575 -3.7019043 97.97973633 C-5.37636559 98.64688264 -7.04176276 99.33673865 -8.7043457 100.03295898 C-32.7403656 110.09003355 -58.49768347 109.12758937 -82.4074707 99.39233398 C-85.79451625 97.77209816 -88.78181879 96.10117436 -91.74731445 93.79467773 C-91.74731445 92.80467773 -91.74731445 91.81467773 -91.74731445 90.79467773 C-89.40125672 89.16157781 -87.09047791 87.72069032 -84.62231445 86.29467773 C-66.64883789 75.46019887 -52.24087768 62.16014809 -40.25268555 44.95483398 C-38.61268952 42.60149554 -36.95608597 40.26036988 -35.2980957 37.91967773 C-29.42313814 29.60100563 -23.62571664 21.23603025 -18.03027344 12.72631836 C-16.94437998 11.07685994 -15.84591505 9.43570009 -14.74731445 7.79467773 C-14.42909131 7.19347075 -14.11086817 6.59226377 -13.7830019 5.9728384 C-10.25736111 -0.10475762 -6.67033742 -0.18304698 0 0 Z " fill="#F8F8F8" transform="translate(668.747314453125,467.205322265625)"/>
<path d="M0 0 C4.95 0.33 9.9 0.66 15 1 C15 1.66 15 2.32 15 3 C11.60057436 4.69971282 7.72317162 4.14717074 3.9831543 4.14526367 C3.04789413 4.14862228 2.11263397 4.1519809 1.14903259 4.15544128 C-1.95925205 4.16497844 -5.06748286 4.16689652 -8.17578125 4.16796875 C-10.33896405 4.17118205 -12.50214664 4.17454618 -14.66532898 4.17805481 C-19.21251935 4.18405482 -23.75969071 4.18589408 -28.30688477 4.18530273 C-34.10566637 4.18520166 -39.904324 4.19879273 -45.70307636 4.21607494 C-50.17893521 4.22725708 -54.65476483 4.22921996 -59.13063622 4.22869301 C-61.26624156 4.22986613 -63.40184783 4.23425001 -65.53743935 4.24202538 C-76.53985956 4.27829713 -87.1842968 4.26777364 -98 2 C-98 1.67 -98 1.34 -98 1 C-97.16244675 1.07064667 -96.32489349 1.14129333 -95.46195984 1.21408081 C-86.64992389 1.9071884 -77.92269825 2.14668573 -69.08203125 2.1328125 C-67.69024132 2.13348957 -66.29845152 2.13446291 -64.90666199 2.13571167 C-62.00994729 2.13717218 -59.11326376 2.1350895 -56.21655273 2.13037109 C-52.56372655 2.12470089 -48.9109737 2.12803113 -45.2581501 2.13382339 C-30.14849657 2.15401762 -15.07971781 2.07650965 0 1 C0 0.67 0 0.34 0 0 Z " fill="#919591" transform="translate(602,582)"/>
<path d="M0 0 C0 3 0 3 -1.67041016 5.03117371 C-2.45206543 5.80616714 -3.2337207 6.58116058 -4.0390625 7.37963867 C-4.91997559 8.26032516 -5.80088867 9.14101166 -6.70849609 10.04838562 C-7.68050566 11.0050743 -8.6526775 11.96159813 -9.625 12.91796875 C-10.61214273 13.89951679 -11.59862555 14.88172892 -12.58447266 15.86457825 C-15.18199392 18.45064072 -17.78839793 21.02756859 -20.39672852 23.60272217 C-23.05634775 26.23166284 -25.70750308 28.86910807 -28.359375 31.50585938 C-33.56465123 36.67895322 -38.77933688 41.84243007 -44 47 C-44.66 46.67 -45.32 46.34 -46 46 C-43.50727561 42.79506864 -41.02318663 39.72086797 -38 37 C-37.34 37 -36.68 37 -36 37 C-36 36.34 -36 35.68 -36 35 C-34.4609375 33.51953125 -34.4609375 33.51953125 -32.375 31.8125 C-29.0017547 28.95179727 -26.12988095 25.97735637 -23.3125 22.578125 C-21.65206427 20.5816487 -19.93760737 18.73000658 -18 17 C-17.34 17 -16.68 17 -16 17 C-15.73719238 16.40670898 -15.47438477 15.81341797 -15.20361328 15.20214844 C-13.94261566 12.89500878 -12.67933425 11.5266675 -10.7421875 9.765625 C-10.11699219 9.19199219 -9.49179687 8.61835938 -8.84765625 8.02734375 C-8.19667969 7.44082031 -7.54570312 6.85429687 -6.875 6.25 C-6.21628906 5.64800781 -5.55757813 5.04601562 -4.87890625 4.42578125 C-3.25731491 2.94519785 -1.63097546 1.47022875 0 0 Z " fill="#F2F0EF" transform="translate(503,440)"/>
<path d="M0 0 C0 3 0 3 -1.36669922 4.72746277 C-2.00623535 5.36033707 -2.64577148 5.99321136 -3.3046875 6.64526367 C-4.02543457 7.36578415 -4.74618164 8.08630463 -5.48876953 8.82865906 C-6.27622559 9.60063126 -7.06368164 10.37260345 -7.875 11.16796875 C-9.07358643 12.36018791 -9.07358643 12.36018791 -10.29638672 13.57649231 C-12.85732394 16.12059854 -15.42848137 18.65409392 -18 21.1875 C-19.73505674 22.9075157 -21.46944074 24.6282103 -23.203125 26.34960938 C-27.46096689 30.57432329 -31.72725243 34.79036476 -36 39 C-36 34.76641181 -33.57639709 32.97541337 -30.8125 30.0625 C-30.32974609 29.53720703 -29.84699219 29.01191406 -29.34960938 28.47070312 C-26.42581504 25.33498275 -23.37030673 22.66076847 -20 20 C-18.31077584 18.35620035 -16.64731689 16.68579436 -15 15 C-13.74485276 13.74212788 -12.48822539 12.4857317 -11.23046875 11.23046875 C-10.56982422 10.56982422 -9.90917969 9.90917969 -9.22851562 9.22851562 C-6.15234375 6.15234375 -3.07617188 3.07617188 0 0 Z " fill="#F1EFF0" transform="translate(528,512)"/>
<path d="M0 0 C0 3 0 3 -2.11132812 5.4519043 C-3.07697101 6.41707201 -4.05087603 7.37401783 -5.03125 8.32421875 C-5.54175903 8.83048294 -6.05226807 9.33674713 -6.57824707 9.85835266 C-8.21193407 11.47523405 -9.85573744 13.08138126 -11.5 14.6875 C-12.6087547 15.78121031 -13.71683647 16.87560326 -14.82421875 17.97070312 C-17.54173139 20.65512158 -20.26836361 23.3299581 -23 26 C-23.66 25.67 -24.32 25.34 -25 25 C-17.33713429 15.95356131 -8.71743778 8.00957733 0 0 Z " fill="#EDECE9" transform="translate(647,296)"/>
<path d="M0 0 C0 3 0 3 -1.37695312 4.7175293 C-2.00537109 5.33023682 -2.63378906 5.94294434 -3.28125 6.57421875 C-3.95800781 7.24130859 -4.63476562 7.90839844 -5.33203125 8.59570312 C-6.04746094 9.28599609 -6.76289062 9.97628906 -7.5 10.6875 C-8.57314453 11.7403418 -8.57314453 11.7403418 -9.66796875 12.81445312 C-11.43879577 14.54986361 -13.21623456 16.2779073 -15 18 C-15.66 17.67 -16.32 17.34 -17 17 C-15.10858512 14.91250542 -13.21212032 12.8300063 -11.3125 10.75 C-10.78205078 10.16347656 -10.25160156 9.57695312 -9.70507812 8.97265625 C-6.66812306 5.6562268 -3.61365652 2.70856629 0 0 Z " fill="#F0EFED" transform="translate(543,400)"/>
<path d="M0 0 C0.66 0.33 1.32 0.66 2 1 C-3.61 6.61 -9.22 12.22 -15 18 C-15.66 17.67 -16.32 17.34 -17 17 C-12.0252641 11.16526986 -6.8758329 5.92339116 -1 1 C-0.67 0.67 -0.34 0.34 0 0 Z " fill="#B6B5B8" transform="translate(614,240)"/>
<path d="M0 0 C2.64 0 5.28 0 8 0 C8 0.66 8 1.32 8 2 C5.29120665 3.35439668 2.99066732 3.06501451 0 3 C0 2.01 0 1.02 0 0 Z " fill="#545556" transform="translate(609,583)"/>
<path d="M0 0 C2.31 0.33 4.62 0.66 7 1 C7 1.99 7 2.98 7 4 C5.35 4 3.7 4 2 4 C2 3.01 2 2.02 2 1 C1.34 0.67 0.68 0.34 0 0 Z " fill="#969799" transform="translate(602,582)"/>
<path d="M0 0 C0.66 0.33 1.32 0.66 2 1 C1.01 2.485 1.01 2.485 0 4 C-0.99 4 -1.98 4 -3 4 C-2.67 3.01 -2.34 2.02 -2 1 C-1.34 0.67 -0.68 0.34 0 0 Z " fill="#010201" transform="translate(574,564)"/>
<path d="M0 0 C0.33 0.66 0.66 1.32 1 2 C0.34 1.67 -0.32 1.34 -1 1 C-0.67 0.67 -0.34 0.34 0 0 Z " fill="#272C2B" transform="translate(785,358)"/>
<path d="M0 0 C2 1 2 1 2 1 Z " fill="#000000" transform="translate(524,355)"/>
<path d="" fill="#141A18" transform="translate(0,0)"/>
<path d="" fill="#000000" transform="translate(0,0)"/>
<path d="" fill="#010703" transform="translate(0,0)"/>
</svg>
