<svg width="147" height="127" viewBox="0 0 147 127" fill="none" xmlns="http://www.w3.org/2000/svg">
<path d="M95.1843 0.710559C78.2901 4.32424 66.6496 21.2659 62.9411 29.285L12.8767 37.2534L0 52.2258H40.0722C43.9043 52.2258 46.4418 49.925 47.2316 48.7746H48.8283L32.4492 71.7154C28.5519 77.2983 20.6439 91.4181 20.1906 103.234C19.624 118.003 30.8525 123.078 35.2821 125.159C39.7116 127.24 76.5904 127.139 78.8052 126.834C81.02 126.53 80.0414 125.819 75.9208 125.159C62.8997 122.353 60.0751 118.11 58.8657 116.294L58.8206 116.227C57.636 114.45 53.6281 111.262 56.1423 98.9702C58.8206 85.8757 79.8868 55.2711 80.6079 54.4083C81.1848 53.718 77.7235 52.6657 75.9208 52.2258C95.4247 52.3273 134.597 52.4695 135.256 52.2258C135.916 51.9822 143.36 43.4623 147 39.2328L98.0687 29.8941C100.644 26.0537 106.011 17.9974 106.876 16.495C107.958 14.6171 116.302 -3.80654 95.1843 0.710559Z" fill="#C6A0F6"/>
<path d="M83.0802 102.32C78.5889 108.451 69.637 114.467 65.9285 116.734C65.9285 120.185 66.9186 121.081 75.9208 122.114C86.5312 123.332 94.0684 120.71 97.8627 119.627C103.374 118.054 108.678 113.993 113.675 108.613C116.457 105.619 124.921 93.0659 129.333 86.2817H94.2057C92.3686 89.0732 87.5716 96.1889 83.0802 102.32Z" fill="#C6A0F6"/>
</svg>
